<svg xmlns="http://www.w3.org/2000/svg" width="300" height="472.199" viewBox="0 0 300 472.199">
  <g id="Group_13" data-name="Group 13" transform="translate(-38 -265)">
    <g id="Group_12" data-name="Group 12">
      <g id="Empty-pana" transform="translate(15.074 223.753)">
        <g id="freepik--background-complete--inject-32" transform="translate(22.926 41.247)">
          <rect id="Rectangle_1" data-name="Rectangle 1" width="68.962" height="53.19" transform="translate(95.404 223.474)" fill="#ebebeb"/>
          <path id="Path_1" data-name="Path 1" d="M244.982,431.491c-.093,0-.172-11.859-.172-26.486s.079-26.486.172-26.486.172,11.859.172,26.486S245.075,431.491,244.982,431.491Z" transform="translate(-97.892 -155.199)" fill="#e0e0e0"/>
          <rect id="Rectangle_2" data-name="Rectangle 2" width="5.284" height="5.979" transform="translate(153.235 264.559)" fill="#fafafa"/>
          <rect id="Rectangle_3" data-name="Rectangle 3" width="7.833" height="11.349" transform="translate(116.446 223.613)" fill="#e0e0e0"/>
          <rect id="Rectangle_4" data-name="Rectangle 4" width="7.833" height="11.349" transform="translate(116.446 265.155)" fill="#e0e0e0"/>
          <rect id="Rectangle_5" data-name="Rectangle 5" width="86.959" height="67.068" transform="translate(202.544 210.138)" fill="#ebebeb"/>
          <path id="Path_2" data-name="Path 2" d="M427.152,425.11c-.093,0-.172-14.944-.172-33.385s.079-33.385.172-33.385.172,14.944.172,33.385S427.251,425.11,427.152,425.11Z" transform="translate(-159.44 -148.381)" fill="#e0e0e0"/>
          <rect id="Rectangle_6" data-name="Rectangle 6" width="6.668" height="7.535" transform="translate(275.459 261.937)" fill="#fafafa"/>
          <rect id="Rectangle_7" data-name="Rectangle 7" width="9.879" height="14.309" transform="translate(229.07 210.31)" fill="#e0e0e0"/>
          <rect id="Rectangle_8" data-name="Rectangle 8" width="9.879" height="14.309" transform="translate(229.07 262.692)" fill="#e0e0e0"/>
          <path id="Path_3" data-name="Path 3" d="M79.31,360.706a18.653,18.653,0,0,1,11.574-1.4c2.1.344,4.284.973,5.714,2.549s1.7,4.35.06,5.708a5.486,5.486,0,0,1-3.609.914c-3.059-.04-6.449-.576-8.893,1.265-1.4,1.053-2.324,2.794-3.973,3.311a3.907,3.907,0,0,1-4.33-1.927,6.721,6.721,0,0,1-.49-4.973,7.581,7.581,0,0,1,3.946-5.443Z" transform="translate(-40.553 -148.595)" fill="#ebebeb"/>
          <path id="Path_4" data-name="Path 4" d="M68.246,321.81c2.152,3.072,6.337,2.059,8.277.179s2.761-4.6,3.5-7.184c1.708-5.926,3.423-12.144,2.159-18.176a10.058,10.058,0,0,0-2.324-4.94,5.3,5.3,0,0,0-4.993-1.662c-2.112.556-3.423,2.649-4.37,4.589A43.231,43.231,0,0,0,66.22,313.2c0,3,.338,6.138,2.026,8.608" transform="translate(-37.553 -125.265)" fill="#ebebeb"/>
          <path id="Path_5" data-name="Path 5" d="M47.713,331.259a11.178,11.178,0,0,0,1.741-10.29,19.853,19.853,0,0,0-6.1-8.846,32.842,32.842,0,0,0-10.912-6.436,11.64,11.64,0,0,0-4.913-.834,5.145,5.145,0,0,0-4.119,2.49c-1.152,2.192-.046,4.847,1.146,7.019a83.345,83.345,0,0,0,7.164,10.919c2.152,2.768,4.635,5.5,7.886,6.754s6.681,1.106,8.416-1.165" transform="translate(-22.926 -130.305)" fill="#ebebeb"/>
          <path id="Path_6" data-name="Path 6" d="M69.041,393.674a6.668,6.668,0,0,0,.2-1.391c.1-1.02.219-2.3.371-3.814a55.62,55.62,0,0,1,.854-5.588A42.786,42.786,0,0,1,72.5,376.26a24.5,24.5,0,0,1,3.37-5.959,12.726,12.726,0,0,1,4.258-3.542,11.985,11.985,0,0,1,3.589-1.112,6.545,6.545,0,0,0,1.39-.205,6.436,6.436,0,0,0-1.41,0,10.84,10.84,0,0,0-3.741.973,12.541,12.541,0,0,0-4.5,3.576,23.619,23.619,0,0,0-3.5,6.085,40.491,40.491,0,0,0-1.986,6.707,48.567,48.567,0,0,0-.748,5.661c-.119,1.622-.166,2.933-.185,3.84a6.622,6.622,0,0,0,0,1.391Z" transform="translate(-38.494 -150.766)" fill="#e0e0e0"/>
          <path id="Path_7" data-name="Path 7" d="M69.315,371.512a2.814,2.814,0,0,0,.04-.662V369c0-1.609,0-3.94.079-6.813.146-5.747.662-11.919,1.6-20.652.907-8.2,2.119-17.745,3.4-23.95.271-1.41.55-2.682.814-3.794s.457-2.079.662-2.854.318-1.324.437-1.8a2.713,2.713,0,0,0,.113-.662,2.649,2.649,0,0,0-.225.609c-.146.47-.324,1.053-.543,1.775s-.483,1.728-.761,2.834-.6,2.377-.894,3.787A209.9,209.9,0,0,0,70.454,339.7c-.953,8.74-1.384,16.7-1.424,22.46,0,2.88,0,5.218.1,6.827.046.748.086,1.364.113,1.847a2.854,2.854,0,0,0,.073.682Z" transform="translate(-38.503 -131.531)" fill="#e0e0e0"/>
          <path id="Path_8" data-name="Path 8" d="M59.048,358.576a12.448,12.448,0,0,0,0-1.94c-.073-1.245-.245-3.039-.6-5.244a69.007,69.007,0,0,0-1.735-7.641,63.118,63.118,0,0,0-3.2-9.045A48.084,48.084,0,0,0,44.137,320.1a23.233,23.233,0,0,0-2.212-2.053c-.338-.291-.662-.576-.94-.8l-.821-.589a11.733,11.733,0,0,0-1.635-1.046,58.231,58.231,0,0,1,5.343,4.767,50.72,50.72,0,0,1,9.151,14.567,70.282,70.282,0,0,1,3.211,8.959q1.092,3.733,1.808,7.562c.4,2.178.662,3.973.768,5.191A12.155,12.155,0,0,0,59.048,358.576Z" transform="translate(-28.197 -133.944)" fill="#e0e0e0"/>
          <path id="Path_9" data-name="Path 9" d="M45.56,417.86,47.1,438.936H74.171l1.536-21.076Z" transform="translate(-30.573 -168.49)" fill="#ebebeb"/>
          <rect id="Rectangle_9" data-name="Rectangle 9" width="35.987" height="8.303" transform="translate(12.371 241.067)" fill="#ebebeb"/>
          <path id="Path_10" data-name="Path 10" d="M41.61,448.47v2.3h35.4v-2.3Z" transform="translate(-29.239 -178.832)" fill="#e0e0e0"/>
          <path id="Path_11" data-name="Path 11" d="M45.825,455.612,44.17,451.56H76.582l-1.933,4.052Z" transform="translate(-30.104 -179.876)" fill="#e0e0e0"/>
          <path id="Path_12" data-name="Path 12" d="M75.437,426.757a.98.98,0,0,1-.126.2c-.106.139-.245.318-.4.536l-1.576,1.986-.073.093-.066-.093-3.874-5.357h.219l-3.814,5.4-.119.172-.132-.159-4.522-5.383h.258l-.245.318-4.046,5.065-.139.172-.119-.179-3.821-5.4h.225l-4.7,5.35-.079.1-.066-.113-1.47-2.437c-.159-.265-.278-.483-.377-.662a1.025,1.025,0,0,1-.119-.238,1.02,1.02,0,0,1,.159.212l.417.629,1.543,2.43h-.146l4.635-5.416.113-.139.106.146,3.854,5.377h-.252l4.032-5.079c.086-.106.172-.212.245-.311l.132-.166.132.159,4.509,5.4h-.252L69.332,424l.113-.159.106.159c1.53,2.178,2.827,4.026,3.794,5.416h-.139l1.642-1.986c.179-.205.324-.371.437-.51a1.5,1.5,0,0,1,.152-.159Z" transform="translate(-30.806 -170.5)" fill="#f5f5f5"/>
          <path id="Path_13" data-name="Path 13" d="M76.2,417.565c0,.093-6.787.172-15.15.172s-15.15-.079-15.15-.172,6.78-.166,15.15-.166S76.2,417.473,76.2,417.565Z" transform="translate(-30.688 -168.335)" fill="#f5f5f5"/>
          <rect id="Rectangle_10" data-name="Rectangle 10" width="5.549" height="27.611" transform="matrix(1, -0.005, 0.005, 1, 229.84, 10.329)" fill="#e0e0e0"/>
          <rect id="Rectangle_11" data-name="Rectangle 11" width="14.368" height="15.242" transform="matrix(1, -0.005, 0.005, 1, 181.77, 10.45)" fill="#ebebeb"/>
          <rect id="Rectangle_12" data-name="Rectangle 12" width="14.368" height="15.242" transform="matrix(1, -0.005, 0.005, 1, 196.072, 10.373)" fill="#f5f5f5"/>
          <path id="Path_14" data-name="Path 14" d="M297.417,63.167q14.329.119,28.671-.132a.152.152,0,0,0,0-.3c-9.548-.053-19.123,0-28.671.179a.132.132,0,0,0,0,.258Z" transform="translate(-115.631 -48.499)" fill="#e0e0e0"/>
          <rect id="Rectangle_13" data-name="Rectangle 13" width="26.108" height="12.422" transform="matrix(1, -0.005, 0.005, 1, 172.813, 25.503)" fill="#ebebeb"/>
          <rect id="Rectangle_14" data-name="Rectangle 14" width="26.108" height="12.422" transform="matrix(1, -0.005, 0.005, 1, 198.794, 25.362)" fill="#f5f5f5"/>
          <path id="Path_15" data-name="Path 15" d="M283.872,84.688c17.341.192,34.742,0,52.09-.258a.152.152,0,0,0,0-.3c-17.341-.093-34.749-.086-52.09.3a.132.132,0,1,0,0,.265Z" transform="translate(-111.045 -55.717)" fill="#e0e0e0"/>
          <rect id="Rectangle_15" data-name="Rectangle 15" width="101.148" height="4.45" transform="translate(163.061 37.936)" fill="#e0e0e0"/>
          <rect id="Rectangle_16" data-name="Rectangle 16" width="4.105" height="15.183" transform="translate(179.621 40.074)" fill="#e0e0e0"/>
          <rect id="Rectangle_17" data-name="Rectangle 17" width="4.105" height="15.183" transform="translate(240.915 40.074)" fill="#e0e0e0"/>
          <rect id="Rectangle_18" data-name="Rectangle 18" width="5.549" height="37.974" transform="matrix(1, -0.005, 0.005, 1, 235.254, 0.03)" fill="#ebebeb"/>
          <rect id="Rectangle_19" data-name="Rectangle 19" width="8.621" height="30.776" transform="matrix(1, -0.005, 0.005, 1, 240.847, 7.118)" fill="#f5f5f5"/>
          <path id="Path_16" data-name="Path 16" d="M395.208,60.826a61.083,61.083,0,0,1-8.608,0,63.848,63.848,0,0,1,8.608,0Z" transform="translate(-145.797 -47.813)" fill="#e0e0e0"/>
          <path id="Path_17" data-name="Path 17" d="M395.2,58.923a63.849,63.849,0,0,1-8.621,0,61.081,61.081,0,0,1,8.608,0Z" transform="translate(-145.791 -47.168)" fill="#e0e0e0"/>
          <path id="Path_18" data-name="Path 18" d="M395.208,91.356a61.083,61.083,0,0,1-8.608,0,63.846,63.846,0,0,1,8.608,0Z" transform="translate(-145.797 -58.128)" fill="#e0e0e0"/>
          <path id="Path_19" data-name="Path 19" d="M395.208,89.4a63.853,63.853,0,0,1-8.608,0,61.085,61.085,0,0,1,8.608,0Z" transform="translate(-145.797 -57.466)" fill="#e0e0e0"/>
          <path id="Path_20" data-name="Path 20" d="M393.226,78.142c-.079,0-.146-3.105-.146-6.933s.066-6.939.146-6.939.152,3.105.152,6.939S393.312,78.142,393.226,78.142Z" transform="translate(-147.987 -49.026)" fill="#e0e0e0"/>
          <rect id="Rectangle_20" data-name="Rectangle 20" width="9.383" height="23.228" transform="translate(249.51 14.642)" fill="#ebebeb"/>
          <circle id="Ellipse_2" data-name="Ellipse 2" cx="1.596" cy="1.596" r="1.596" transform="translate(236.346 4.902)" fill="#e0e0e0"/>
          <rect id="Rectangle_21" data-name="Rectangle 21" width="0.987" height="22.592" transform="translate(237.452 10.887)" fill="#e0e0e0"/>
        </g>
        <g id="freepik--Floor--inject-32" transform="translate(31.146 317.917)">
          <path id="Path_21" data-name="Path 21" d="M319.609,459.262c0,.1-63.645.172-142.128.172s-142.141-.073-142.141-.172,63.632-.172,142.141-.172S319.609,459.169,319.609,459.262Z" transform="translate(-35.34 -459.09)" fill="#263238"/>
        </g>
        <g id="freepik--Character--inject-32" transform="translate(49.731 70.615)">
          <path id="Path_22" data-name="Path 22" d="M143.993,92.35a21.188,21.188,0,0,1,4.781,13.547c-.033,2.794-.55,5.873,1.079,8.144,1.232,1.722,3.483,2.589,4.483,4.456,1.205,2.245.179,5.085.92,7.522,1.046,3.456,5.1,4.906,7.5,7.6a9.614,9.614,0,0,1,1.986,8.793,9.879,9.879,0,0,1-6.211,6.568,6.436,6.436,0,0,1-4.913-.079,8.451,8.451,0,0,1-3.443-4.092c-1.6-3.192-15.613-20.44-16.408-23.923" transform="translate(-87.181 -87.881)" fill="#263238"/>
          <path id="Path_23" data-name="Path 23" d="M120.058,86.139c-5.734-.927-11.256,2.88-13.66,8.164s-2.483,11.256-2.649,17.083-.589,11.866-3.549,16.858c-1.88,3.172-4.794,5.959-5.251,9.608-.411,3.271,1.285,6.568.722,9.82-.49,2.834-2.649,5.3-2.562,8.164.106,3.456,3.662,6.059,7.111,6.151s6.681-1.715,9.389-3.86a36.087,36.087,0,0,0,10.309-13.1" transform="translate(-73.442 -85.735)" fill="#263238"/>
          <path id="Path_24" data-name="Path 24" d="M119.517,100.626a10.852,10.852,0,0,1,9.76-12.15,11.065,11.065,0,0,1,11.793,9.5,113.906,113.906,0,0,1,1.391,11.971c-.073,5.569-3.311,7.734-4.635,8.389a7.457,7.457,0,0,1-1.47.364h0v.04l1.232,6.4c.563,4.191-1.775,7.946-5.959,8.535s-7.476-2.609-8.118-6.8Z" transform="translate(-82.337 -86.555)" fill="#ffbe9d"/>
          <path id="Path_25" data-name="Path 25" d="M148.6,106.158c-.093.132-.828-.258-1.768-.119s-1.569.708-1.688.609,0-.265.291-.53a2.437,2.437,0,0,1,1.324-.662,2.317,2.317,0,0,1,1.43.238C148.524,105.906,148.649,106.105,148.6,106.158Z" transform="translate(-91.009 -92.3)" fill="#263238"/>
          <path id="Path_26" data-name="Path 26" d="M135.943,109.24c-.093.132-.828-.265-1.775-.126s-1.563.715-1.682.616,0-.271.291-.53a2.437,2.437,0,0,1,1.324-.662,2.371,2.371,0,0,1,1.43.245C135.857,108.988,135.989,109.18,135.943,109.24Z" transform="translate(-86.732 -93.342)" fill="#263238"/>
          <path id="Path_27" data-name="Path 27" d="M142.109,113.263a6.218,6.218,0,0,1,1.49-.5c.238-.06.457-.139.477-.311a1.238,1.238,0,0,0-.265-.662l-.987-1.761a31.215,31.215,0,0,1-2.3-4.562,27.926,27.926,0,0,1,2.649,4.37c.338.609.662,1.192.953,1.741a1.437,1.437,0,0,1,.265.927.6.6,0,0,1-.344.411,1.682,1.682,0,0,1-.4.119,5.959,5.959,0,0,1-1.536.225Z" transform="translate(-89.461 -92.313)" fill="#263238"/>
          <path id="Path_28" data-name="Path 28" d="M140.548,133.525A15.187,15.187,0,0,1,132,132.28s2.139,4.6,8.886,2.966Z" transform="translate(-86.583 -101.372)" fill="#eb996e"/>
          <path id="Path_29" data-name="Path 29" d="M134.836,105.639c-.053.271-1.013.285-2.1.583s-1.94.722-2.119.516c-.079-.1.04-.364.364-.662a3.787,3.787,0,0,1,3.211-.834C134.63,105.341,134.836,105.513,134.836,105.639Z" transform="translate(-86.108 -92.211)" fill="#263238"/>
          <path id="Path_30" data-name="Path 30" d="M147.57,102.99c-.132.238-.814.113-1.6.212s-1.424.358-1.609.152c-.079-.1,0-.324.252-.569a2.2,2.2,0,0,1,1.245-.543,2.258,2.258,0,0,1,1.324.245C147.5,102.665,147.629,102.871,147.57,102.99Z" transform="translate(-90.75 -91.217)" fill="#263238"/>
          <path id="Path_31" data-name="Path 31" d="M134.636,111.013a.781.781,0,0,0,.894.662.755.755,0,0,0,.662-.848.788.788,0,0,0-.894-.662.748.748,0,0,0-.662.848Z" transform="translate(-87.471 -93.897)" fill="#263238"/>
          <path id="Path_32" data-name="Path 32" d="M147.246,108.283a.788.788,0,0,0,.894.662.755.755,0,0,0,.662-.848.788.788,0,0,0-.894-.662.748.748,0,0,0-.662.848Z" transform="translate(-91.731 -92.975)" fill="#263238"/>
          <path id="Path_33" data-name="Path 33" d="M144.381,119.973a1.165,1.165,0,0,0-1.377.569,1.212,1.212,0,0,0,.166,1.4,1.066,1.066,0,0,0,1.377.1,1.324,1.324,0,0,0,.43-.9,1.271,1.271,0,0,0-.212-.9.722.722,0,0,0-.841-.252" transform="translate(-90.25 -97.196)" fill="#eb996e"/>
          <path id="Path_34" data-name="Path 34" d="M143.177,92.486a8.528,8.528,0,0,0-3.629-5.1,9.469,9.469,0,0,0-5.072-1.781,6.959,6.959,0,0,0-4.993,1.814,5.191,5.191,0,0,0-1.536,3.609l.106-.927a3.377,3.377,0,0,0,0,2.337h0c.152.4.338.814.5,1.218a5.231,5.231,0,0,0,2.476,2.695,3.4,3.4,0,0,0,1.655.4,1.986,1.986,0,0,0,1.5-.735,3.311,3.311,0,0,0,.358-2.37,5.661,5.661,0,0,0,1.808,1.986,1.986,1.986,0,0,0,2.49-.285,2.6,2.6,0,0,0,0-2.529,5.006,5.006,0,0,0,2.073,1.781,1.847,1.847,0,0,0,1.477.159,1.437,1.437,0,0,0,.768-.993A3.033,3.033,0,0,0,143.177,92.486Z" transform="translate(-85.179 -85.6)" fill="#263238"/>
          <path id="Path_35" data-name="Path 35" d="M139.253,94.681c-.06,0-.046-.788-.3-1.986a7.575,7.575,0,0,0-2.284-4.152,5.423,5.423,0,0,0-2.291-1.238,4.979,4.979,0,0,0-2.132-.053,6.151,6.151,0,0,0-1.841.761,1.779,1.779,0,0,1,.4-.377,4.065,4.065,0,0,1,1.384-.622,4.953,4.953,0,0,1,2.258,0,5.608,5.608,0,0,1,2.45,1.324,7.409,7.409,0,0,1,2.3,4.363,9.583,9.583,0,0,1,.119,1.5,1.417,1.417,0,0,1-.06.483Z" transform="translate(-86.042 -86.034)" fill="#455a64"/>
          <path id="Path_36" data-name="Path 36" d="M211.693,201.2l-25.459-10.1S173.2,174,173.467,173.67l-9.157,10.025,13.309,18,30.849,7.231,5.3-1.47C212.6,201.837,211.693,201.2,211.693,201.2Z" transform="translate(-97.499 -115.356)" fill="#ffbe9d"/>
          <path id="Path_37" data-name="Path 37" d="M133.932,140.884l-3.47-1.324-14.978,1.9v2.649l-.43.053a30.682,30.682,0,0,0-9.171,3.562A15.653,15.653,0,0,0,98.6,163.662c.609,3.787,1.788,8.389,4.066,11.051,4.35,5.092,8.323-1.2,8.323-1.2s2.728,6.224,2.569,9.171a80.3,80.3,0,0,1-1.569,9.21.483.483,0,0,0,.391.583l31.6,5.847.152-7.727-1.006-31.783L141.7,146.473S141.746,140.58,133.932,140.884Z" transform="translate(-75.226 -103.831)" fill="#ddd"/>
          <path id="Path_38" data-name="Path 38" d="M163.07,146.9l12.051,17.408-9.7,11.813Z" transform="translate(-97.08 -106.311)" fill="#ddd"/>
          <path id="Path_39" data-name="Path 39" d="M165.179,187.81a7.6,7.6,0,0,1-.046-1.126c0-.781,0-1.808-.04-3.059a92.81,92.81,0,0,0-.722-10.045c-.5-3.907-1.258-7.4-1.834-9.932l-.7-2.98a7.672,7.672,0,0,1-.225-1.1,6.323,6.323,0,0,1,.358,1.066c.205.662.483,1.7.8,2.96a81.147,81.147,0,0,1,1.947,9.932,77.935,77.935,0,0,1,.622,10.091c0,1.324-.033,2.344-.073,3.066A6.618,6.618,0,0,1,165.179,187.81Z" transform="translate(-96.587 -110.592)" fill="#263238"/>
          <path id="Path_40" data-name="Path 40" d="M114.139,162.189c0,.053-.914.046-2.377.119a38.5,38.5,0,0,0-5.681.735,39.368,39.368,0,0,0-5.509,1.583c-1.377.51-2.2.887-2.231.834a2.364,2.364,0,0,1,.556-.324c.364-.2.907-.45,1.589-.735a30.843,30.843,0,0,1,11.256-2.331c.742,0,1.324,0,1.755.04A2.092,2.092,0,0,1,114.139,162.189Z" transform="translate(-75.21 -111.436)" fill="#fafafa"/>
          <path id="Path_41" data-name="Path 41" d="M159.032,174.28a5.861,5.861,0,0,1-1.5.331,33.419,33.419,0,0,1-7.4.252,5.959,5.959,0,0,1-1.523-.225,8.68,8.68,0,0,1,1.536,0h3.681c1.437,0,2.735-.146,3.675-.232a8.454,8.454,0,0,1,1.53-.126Z" transform="translate(-92.195 -115.562)" fill="#fafafa"/>
          <path id="Path_42" data-name="Path 42" d="M169.831,162.387a9.376,9.376,0,0,1-2.582,2.086,9.085,9.085,0,0,1-3.039,1.324c-.04-.093,1.324-.662,2.86-1.642A29.851,29.851,0,0,1,169.831,162.387Z" transform="translate(-97.465 -111.542)" fill="#fafafa"/>
          <path id="Path_43" data-name="Path 43" d="M161.495,150.2a12.488,12.488,0,0,1-7.555,3.178c0-.106,1.821-.384,3.913-1.278S161.429,150.111,161.495,150.2Z" transform="translate(-93.995 -107.424)" fill="#fafafa"/>
          <path id="Path_44" data-name="Path 44" d="M157.4,194.637a3.159,3.159,0,0,1-.622.324c-.417.2-1.02.444-1.788.728a33.035,33.035,0,0,1-6.151,1.563,32.487,32.487,0,0,1-6.337.351c-.814-.033-1.47-.093-1.92-.152a3.138,3.138,0,0,1-.7-.126,24.552,24.552,0,0,1,2.649.04,38.92,38.92,0,0,0,12.4-1.907C156.45,194.962,157.384,194.585,157.4,194.637Z" transform="translate(-89.248 -122.438)" fill="#fafafa"/>
          <path id="Path_45" data-name="Path 45" d="M150.854,208.19a2.575,2.575,0,0,1-.285.166l-.848.371c-.728.344-1.808.795-3.158,1.324a48.893,48.893,0,0,1-4.827,1.543,56.9,56.9,0,0,1-12.25,1.9c-1.907.073-3.622.066-5.065,0s-2.6-.172-3.4-.285l-.92-.126a1.225,1.225,0,0,1-.318-.066,1.033,1.033,0,0,1,.324,0l.927.06c.8.066,1.986.132,3.4.172s3.152,0,5.045-.066a48.744,48.744,0,0,0,6.138-.662c2.165-.358,4.2-.788,6.045-1.251s3.47-.987,4.82-1.47,2.45-.887,3.192-1.192l.861-.338a1.6,1.6,0,0,1,.324-.079Z" transform="translate(-82.454 -127.019)" fill="#fafafa"/>
          <path id="Path_46" data-name="Path 46" d="M73.732,420.78,70.15,436.956l-6.535,11.978a1.7,1.7,0,0,0,.781,2.357h0a1.688,1.688,0,0,0,1.549-.073c3.033-1.748,14.163-8.257,14.355-9.455.232-1.384,4.913-16.812,4.913-16.812Z" transform="translate(-63.408 -198.844)" fill="#ddd"/>
          <g id="Group_1" data-name="Group 1" transform="translate(0.988 241.853)" opacity="0.6">
            <path id="Path_47" data-name="Path 47" d="M64.9,461.454,81.076,450.86l-.172.662a2.556,2.556,0,0,1-.98,1.47c-1.324.947-5.012,3.49-13.422,8.4A1.7,1.7,0,0,1,64.9,461.454Z" transform="translate(-64.9 -450.86)" fill="#fff"/>
          </g>
          <g id="Group_2" data-name="Group 2" transform="translate(14.5 235.776)" opacity="0.6">
            <path id="Path_48" data-name="Path 48" d="M85.938,441.741a1.026,1.026,0,0,0-.589,1.238.987.987,0,0,0,1.218.6,1.086,1.086,0,0,0,.622-1.324,1.026,1.026,0,0,0-1.324-.483" transform="translate(-85.306 -441.683)" fill="#fff"/>
          </g>
          <path id="Path_49" data-name="Path 49" d="M71.594,456.337a5.3,5.3,0,0,0-1.106-1.6,5.146,5.146,0,0,0-1.768-.788c0-.046.232-.119.622-.079a2.648,2.648,0,0,1,1.377.609,2.569,2.569,0,0,1,.834,1.232C71.667,456.092,71.633,456.337,71.594,456.337Z" transform="translate(-65.203 -210.022)" fill="#263238"/>
          <path id="Path_50" data-name="Path 50" d="M69.111,459.551c-.093.053-.483-.6-1.258-1.04a12.43,12.43,0,0,0-1.523-.589,1.894,1.894,0,0,1,1.708.271C68.919,458.7,69.2,459.531,69.111,459.551Z" transform="translate(-64.395 -211.361)" fill="#263238"/>
          <path id="Path_51" data-name="Path 51" d="M75.219,452.75a16.157,16.157,0,0,0-1.828-1.735,16.428,16.428,0,0,0-2.251-1.145,3.781,3.781,0,0,1,2.463.848A3.708,3.708,0,0,1,75.219,452.75Z" transform="translate(-66.02 -208.672)" fill="#263238"/>
          <path id="Path_52" data-name="Path 52" d="M77.465,446.243c-.066.086-.867-.5-1.986-.828s-2.132-.271-2.139-.384a4.224,4.224,0,0,1,4.152,1.212Z" transform="translate(-66.764 -206.992)" fill="#263238"/>
          <path id="Path_53" data-name="Path 53" d="M79.127,439.1a8.375,8.375,0,0,0-2.072-.92,8.4,8.4,0,0,0-2.265,0c0-.04.205-.2.629-.324a3.7,3.7,0,0,1,3.258.662C79.014,438.834,79.153,439.072,79.127,439.1Z" transform="translate(-67.254 -204.569)" fill="#263238"/>
          <path id="Path_54" data-name="Path 54" d="M77.513,435.479a1.483,1.483,0,0,1,.132-.609,4.238,4.238,0,0,1,.874-1.477,1.947,1.947,0,0,1,1.02-.7.7.7,0,0,1,.715.331,1.112,1.112,0,0,1,.073.795,2.4,2.4,0,0,1-2.569,1.655,2.794,2.794,0,0,1-2.311-2.066.993.993,0,0,1,.152-.795.662.662,0,0,1,.761-.179,2.417,2.417,0,0,1,.927.814,4.893,4.893,0,0,1,.788,1.53,1.523,1.523,0,0,1,.113.622,7.6,7.6,0,0,0-1.106-1.986,2.238,2.238,0,0,0-.821-.662.358.358,0,0,0-.417.1.662.662,0,0,0-.066.523,2.5,2.5,0,0,0,2.013,1.735,2.086,2.086,0,0,0,2.2-1.371.828.828,0,0,0,0-.556A.371.371,0,0,0,79.6,433a1.741,1.741,0,0,0-.881.569,6.807,6.807,0,0,0-1.212,1.914Z" transform="translate(-67.467 -202.764)" fill="#263238"/>
          <g id="Group_3" data-name="Group 3" transform="translate(9.112 221.936)" opacity="0.3">
            <path id="Path_55" data-name="Path 55" d="M77.945,422.535l-.775,3.708,11.713,1.947.98-3.238-11.5-4.172Z" transform="translate(-77.17 -420.78)"/>
          </g>
          <path id="Path_56" data-name="Path 56" d="M151.236,429.553l-.967,12.925s12.819,5.3,12.872,7.734l-25.161-.973.662-20.208Z" transform="translate(-88.603 -201.632)" fill="#ddd"/>
          <g id="Group_4" data-name="Group 4" transform="translate(53.187 239.442)" opacity="0.6">
            <path id="Path_57" data-name="Path 57" d="M144.5,447.233a1.033,1.033,0,0,0-.755,1.146.993.993,0,0,0,1.126.762,1.086,1.086,0,0,0,.795-1.218,1.026,1.026,0,0,0-1.258-.662" transform="translate(-143.734 -447.219)" fill="#fff"/>
          </g>
          <g id="Group_5" data-name="Group 5" transform="translate(49.39 245.567)" opacity="0.6">
            <path id="Path_58" data-name="Path 58" d="M138,458.509l.146-2.039,24.069,1.675s1.106.53.947,1.324Z" transform="translate(-138 -456.47)" fill="#fff"/>
          </g>
          <path id="Path_59" data-name="Path 59" d="M155.986,449.105c0,.126-.622.159-1.238.53s-.96.874-1.073.821.1-.755.854-1.192S156.02,448.993,155.986,449.105Z" transform="translate(-93.896 -208.372)" fill="#263238"/>
          <path id="Path_60" data-name="Path 60" d="M160.214,450.969c0,.126-.516.311-.953.814s-.576,1.046-.7,1.04-.172-.708.384-1.324S160.214,450.837,160.214,450.969Z" transform="translate(-95.529 -209.024)" fill="#263238"/>
          <path id="Path_61" data-name="Path 61" d="M163.114,454.767c-.113,0-.258-.6.079-1.258s.927-.907.973-.8-.318.45-.589.993S163.233,454.761,163.114,454.767Z" transform="translate(-97.051 -209.624)" fill="#263238"/>
          <path id="Path_62" data-name="Path 62" d="M155.645,444.44c-.053.106-.609-.086-1.324-.066s-1.245.219-1.324.113.477-.523,1.324-.536S155.724,444.347,155.645,444.44Z" transform="translate(-93.674 -206.673)" fill="#263238"/>
          <g id="Group_6" data-name="Group 6" transform="translate(49.933 229.53)" opacity="0.3">
            <path id="Path_63" data-name="Path 63" d="M151.341,433.2l-.172,2.3-12.349-.6.086-2.662Z" transform="translate(-138.82 -432.25)"/>
          </g>
          <path id="Path_64" data-name="Path 64" d="M155.324,439.642a2.285,2.285,0,0,1-1.258-.053,5.513,5.513,0,0,1-1.324-.457,6.075,6.075,0,0,1-.708-.411,1.648,1.648,0,0,1-.371-.311.543.543,0,0,1,0-.662.662.662,0,0,1,.55-.258,1.878,1.878,0,0,1,.47.079,4.423,4.423,0,0,1,.768.3,4.318,4.318,0,0,1,1.132.8c.563.563.742,1.033.7,1.053s-.324-.358-.9-.828a5.3,5.3,0,0,0-1.1-.662,6.963,6.963,0,0,0-.715-.252c-.265-.079-.49-.086-.563,0s0,.066,0,.146a1.254,1.254,0,0,0,.271.225,6.445,6.445,0,0,0,.662.4,6.729,6.729,0,0,0,1.2.517,8.706,8.706,0,0,1,1.185.364Z" transform="translate(-93.188 -204.49)" fill="#263238"/>
          <path id="Path_65" data-name="Path 65" d="M156.851,438.98a2.085,2.085,0,0,1-.285-1.232,4.436,4.436,0,0,1,.225-1.371,4.753,4.753,0,0,1,.351-.748,1.053,1.053,0,0,1,.828-.609.6.6,0,0,1,.516.378,1.648,1.648,0,0,1,.106.463,2.767,2.767,0,0,1,0,.848,2.9,2.9,0,0,1-.589,1.278c-.516.662-1.033.761-1.046.722a5.493,5.493,0,0,0,.8-.9,2.861,2.861,0,0,0,.444-1.165,2.649,2.649,0,0,0,0-.728c-.033-.265-.126-.49-.225-.464a.932.932,0,0,0-.457.4,4.875,4.875,0,0,0-.338.662,4.707,4.707,0,0,0-.291,1.245C156.8,438.5,156.917,438.98,156.851,438.98Z" transform="translate(-94.88 -203.656)" fill="#263238"/>
          <path id="Path_66" data-name="Path 66" d="M103.689,218.4s-3.973.179-6.621,13.766S74.23,355.845,74.23,355.845l14.64.132,27.585-104.671L114.62,359.235l14.872,1.139S140.649,241,140.748,234.051c.132-8.661-4.84-17.421-4.84-17.421Z" transform="translate(-67.064 -129.87)" fill="#263238"/>
          <path id="Path_67" data-name="Path 67" d="M145.473,217.55c.093,0-1.43,7.78-3.4,17.335s-3.635,17.288-3.728,17.269,1.424-7.78,3.39-17.335S145.4,217.53,145.473,217.55Z" transform="translate(-88.726 -130.181)" fill="#455a64"/>
          <path id="Path_68" data-name="Path 68" d="M151.972,220.456c0-.04.4-.159.854.245a1.212,1.212,0,0,1,.4.934,1.172,1.172,0,0,1-.748,1.006,1.185,1.185,0,0,1-1.245-.165,1.238,1.238,0,0,1-.391-.94c0-.609.411-.821.417-.781a1.887,1.887,0,0,0-.172.775,1.013,1.013,0,0,0,.351.7.947.947,0,0,0,1.47-.616,1.006,1.006,0,0,0-.252-.742C152.33,220.5,151.965,220.509,151.972,220.456Z" transform="translate(-92.948 -131.147)" fill="#455a64"/>
          <path id="Path_69" data-name="Path 69" d="M150.837,228.567c0-.04.411,0,.662.55a1.126,1.126,0,0,1-2.1.814,1.152,1.152,0,0,1,.113-.967c.311-.5.735-.483.722-.444a1.279,1.279,0,0,0-.51.556.98.98,0,0,0,0,.742.881.881,0,0,0,1.483.119.987.987,0,0,0,.086-.742C151.1,228.746,150.8,228.614,150.837,228.567Z" transform="translate(-92.442 -133.882)" fill="#455a64"/>
          <path id="Path_70" data-name="Path 70" d="M123.416,220.68a2.537,2.537,0,0,1-.172.662,11.037,11.037,0,0,1-.775,1.755,12.865,12.865,0,0,1-10.184,6.707,11.021,11.021,0,0,1-1.914,0,2.649,2.649,0,0,1-.662-.106c0-.066,1,.046,2.582-.152a13.435,13.435,0,0,0,10-6.588C123.065,221.62,123.357,220.66,123.416,220.68Z" transform="translate(-79.052 -131.238)" fill="#455a64"/>
          <path id="Path_71" data-name="Path 71" d="M171.005,229.425a3.44,3.44,0,0,1-.444-.265,7.948,7.948,0,0,1-1.059-.914,11.256,11.256,0,0,1-3.238-8.4,7.286,7.286,0,0,1,.179-1.384c.073-.324.119-.5.146-.49s-.079.722-.079,1.88a12.276,12.276,0,0,0,3.172,8.23C170.456,228.935,171.039,229.372,171.005,229.425Z" transform="translate(-98.156 -130.323)" fill="#455a64"/>
          <path id="Path_72" data-name="Path 72" d="M244.016,227.3c.219-.53.159-.318-3.35-2.649,0,0,5.032,3.311,4.509,1.735a6.423,6.423,0,0,0-1.635-1.516c1.324.781,2.092.867,2.324.55.4-.55-2.483-2.649-3.854-3.6a33,33,0,0,0,3.933,2.417c.814.252.424-.7-.126-1.4s-4.814-4.8-5.959-6.025a.993.993,0,0,1,0-1.51,6.28,6.28,0,0,0,2.927-4.132.748.748,0,0,0-1.4-.238,9.085,9.085,0,0,1-1.794,1.7,5.867,5.867,0,0,1-1.735.934,13.942,13.942,0,0,1-5.079-.351L230.33,221.5s8.866,4.145,10.548,4.953C242.944,227.429,243.864,227.7,244.016,227.3Z" transform="translate(-119.805 -127.81)" fill="#ffbe9d"/>
          <path id="Path_73" data-name="Path 73" d="M243.528,229.993a11.658,11.658,0,0,0,2.569,1.887,12.163,12.163,0,0,0,2.8,1.53,12.184,12.184,0,0,0-2.576-1.887A11.078,11.078,0,0,0,243.528,229.993Z" transform="translate(-124.263 -134.38)" fill="#eb996e"/>
          <path id="Path_74" data-name="Path 74" d="M244.789,227.546a13.57,13.57,0,0,0,2.649,2.165,14.583,14.583,0,0,0,2.874,1.821,13.6,13.6,0,0,0-2.649-2.165A14.582,14.582,0,0,0,244.789,227.546Z" transform="translate(-124.689 -133.556)" fill="#eb996e"/>
          <path id="Path_75" data-name="Path 75" d="M246.119,225.066a12.619,12.619,0,0,0,2.457,2.092,12.9,12.9,0,0,0,2.7,1.748,12.95,12.95,0,0,0-2.45-2.092A12.3,12.3,0,0,0,246.119,225.066Z" transform="translate(-125.138 -132.718)" fill="#eb996e"/>
          <path id="Path_76" data-name="Path 76" d="M106.487,161.519l6.5.358a32.656,32.656,0,0,0,1.841,5.3,109,109,0,0,0,10.3-26.155q-.219-.722-.536-1.629a6.912,6.912,0,0,1,.079-2.755c.179-1.086.483-2.556.569-3.231.285-2.066.616-2.4,1.324-2.159.98.318-.4,5.807.4,5.926.437.06.96-1.821,1.119-3.364s.848-6.284,1.357-6.621c.748-.463,1.4.271,1.212,1.808s-.43,6.191.384,6.251,1.477-7.807,1.477-7.807-.126-1.708.814-1.669c1.7.073.377,8.369.232,9.157-.106.543.781.662.861.053s.49-7.873,2.218-7.813c1.324.046-1.026,6.833-.278,8.409s1.265-5.343,2.536-5.251c.47.04.821.132-.046,4.046a89.26,89.26,0,0,1-3.039,9.177c-1.986,10.859-10.852,45.595-24.7,39.238C103.362,179.231,99.74,161.6,99.74,161.6Z" transform="translate(-75.683 -99.172)" fill="#ffbe9d"/>
          <path id="Path_77" data-name="Path 77" d="M148.388,143.514a.932.932,0,0,1,.066-.238c.06-.172.132-.4.232-.662.219-.629.516-1.5.907-2.649s.861-2.536,1.324-4.178c.238-.814.437-1.7.616-2.649.093-.477.179-.967.238-1.47a5.666,5.666,0,0,0,0-.748c0-.258-.06-.47-.265-.477s-.351.119-.5.338a4.111,4.111,0,0,0-.324.735c-.185.523-.331,1.079-.477,1.642s-.278,1.152-.45,1.748a2.722,2.722,0,0,1-.4.914.364.364,0,0,1-.179.113.3.3,0,0,1-.252-.06.854.854,0,0,1-.185-.245,1.9,1.9,0,0,1-.139-.51,16.368,16.368,0,0,1,.4-3.973c.113-.662.232-1.324.318-1.986a10.074,10.074,0,0,0,.086-1.02c.007-.358-.046-.735-.185-.795s-.477.126-.662.4a4.052,4.052,0,0,0-.43.94,13.739,13.739,0,0,0-.51,2.119c-.126.728-.225,1.47-.311,2.225-.033.377-.073.755-.106,1.139l-.053.576a.841.841,0,0,1-.265.662.662.662,0,0,1-.781,0,.543.543,0,0,1-.238-.377.749.749,0,0,1,0-.212v-.139l.179-1.159c.113-.781.205-1.563.278-2.357s.132-1.6.146-2.4a7.946,7.946,0,0,0-.238-2.357.788.788,0,0,0-.331-.477.4.4,0,0,0-.444.146,2.165,2.165,0,0,0-.252,1.285h0c-.146,1.556-.311,3.086-.536,4.589-.113.748-.238,1.5-.424,2.231-.053.179-.106.364-.172.55a1.112,1.112,0,0,1-.377.569.4.4,0,0,1-.483-.106.794.794,0,0,1-.179-.3,2.7,2.7,0,0,1-.152-.569,22.137,22.137,0,0,1-.04-4.337,11.442,11.442,0,0,0,.113-2.033,1.126,1.126,0,0,0-.371-.755.444.444,0,0,0-.344-.053,1.052,1.052,0,0,0-.179.079c-.06.053-.053,0-.093.113a9.038,9.038,0,0,0-.523,1.847c-.132.662-.245,1.265-.344,1.887s-.192,1.232-.271,1.841-.119,1.205-.238,1.8a9.845,9.845,0,0,1-.463,1.708,3.305,3.305,0,0,1-.192.411c-.093.126-.146.285-.4.364a.331.331,0,0,1-.338-.146.981.981,0,0,1-.106-.245,2.647,2.647,0,0,1-.053-.437c0-1.132.152-2.165.212-3.165a7.987,7.987,0,0,0,0-1.437c0-.212-.1-.463-.219-.51a.609.609,0,0,0-.536,0,1.861,1.861,0,0,0-.49,1.086c-.1.4-.139.814-.212,1.205-.278,1.563-.569,2.913-.708,4.013a5.443,5.443,0,0,0,0,1.457c.093.4.232.755.3,1.033s.146.477.192.662a1.164,1.164,0,0,1,.053.218.867.867,0,0,1-.093-.205l-.225-.662c-.093-.285-.232-.6-.344-1.04a5.3,5.3,0,0,1,0-1.5c.126-1.119.391-2.457.662-4.026.073-.391.113-.8.2-1.225a6.251,6.251,0,0,1,.179-.662,1.126,1.126,0,0,1,.411-.6.834.834,0,0,1,.781,0,.894.894,0,0,1,.417.768,8.067,8.067,0,0,1,0,1.5c-.046,1.006-.205,2.059-.179,3.132a2.264,2.264,0,0,0,.046.377c0,.126.093.179.079.152s.126-.106.179-.212a3.072,3.072,0,0,0,.172-.364,8.925,8.925,0,0,0,.43-1.655c.113-.576.152-1.172.232-1.788s.159-1.225.258-1.854.212-1.258.338-1.9a8.608,8.608,0,0,1,.556-1.953.662.662,0,0,1,.232-.258,1.284,1.284,0,0,1,.278-.113.808.808,0,0,1,.662.1,1.43,1.43,0,0,1,.536,1.006,3.972,3.972,0,0,1,0,1.086c-.033.338-.066.662-.086,1.033a21.094,21.094,0,0,0,.04,4.238,2.647,2.647,0,0,0,.132.49.45.45,0,0,0,.1.172h.033v.007a1.325,1.325,0,0,0,.192-.364,4.409,4.409,0,0,0,.159-.516c.179-.7.3-1.443.411-2.185.225-1.49.391-3.019.53-4.569v.033a2.556,2.556,0,0,1,.338-1.569.828.828,0,0,1,.92-.271,1.185,1.185,0,0,1,.569.728,8.3,8.3,0,0,1,.258,2.5c0,.821-.073,1.629-.146,2.43s-.172,1.589-.285,2.37c-.06.4-.119.781-.179,1.172-.053.245-.04.252,0,.324a.278.278,0,0,0,.311,0c.079-.06.093-.172.113-.391l.046-.576.119-1.145c.079-.755.185-1.51.311-2.245a15.141,15.141,0,0,1,.53-2.178,4.826,4.826,0,0,1,.483-1.026,1.477,1.477,0,0,1,.424-.437.728.728,0,0,1,.662-.1.775.775,0,0,1,.364.583,3.254,3.254,0,0,1,.033.563,9.385,9.385,0,0,1-.086,1.066c-.093.662-.219,1.364-.338,2.033a16.7,16.7,0,0,0-.411,3.834,1.709,1.709,0,0,0,.106.4.76.76,0,0,0,.086.132h0v-.046a2.648,2.648,0,0,0,.324-.775c.172-.576.311-1.159.463-1.728a16.915,16.915,0,0,1,.5-1.675,4.133,4.133,0,0,1,.358-.781,1.265,1.265,0,0,1,.3-.351.55.55,0,0,1,.232-.119.835.835,0,0,1,.258,0,.51.51,0,0,1,.417.3,1.219,1.219,0,0,1,.086.437,5.22,5.22,0,0,1-.046.8c-.06.516-.159,1.006-.252,1.49a24.941,24.941,0,0,1-.662,2.649c-.5,1.642-.993,3.033-1.4,4.165s-.748,1.986-.98,2.6c-.113.278-.205.5-.271.662A1.436,1.436,0,0,1,148.388,143.514Z" transform="translate(-88.245 -99.078)" fill="#eb996e"/>
          <path id="Path_78" data-name="Path 78" d="M99.65,177.874c1.258,4.443,3.721,11.3,6.363,18.54a1.251,1.251,0,0,0,2.311.113l6.476-13.7s-1.563-11.256-1.43-10.852-13.362,1.457-13.362,1.457Z" transform="translate(-75.653 -114.779)" fill="#ddd"/>
          <path id="Path_79" data-name="Path 79" d="M115.129,177.56c0,.053-.808.291-2.086.781a29.457,29.457,0,0,0-4.807,2.344,30.156,30.156,0,0,0-4.3,3.178c-1.026.907-1.616,1.53-1.655,1.49s.113-.185.364-.483a15.94,15.94,0,0,1,1.126-1.185,24.836,24.836,0,0,1,4.291-3.311,25.266,25.266,0,0,1,4.9-2.278,15.327,15.327,0,0,1,1.576-.45A1.894,1.894,0,0,1,115.129,177.56Z" transform="translate(-76.538 -116.67)" fill="#fafafa"/>
          <path id="Path_80" data-name="Path 80" d="M123.232,177.064a7.025,7.025,0,0,1-1.086-1.417,24.208,24.208,0,0,1-1.986-3.8,23.837,23.837,0,0,1-1.278-4.105,6.767,6.767,0,0,1-.232-1.761,12.235,12.235,0,0,1,.47,1.7,33.1,33.1,0,0,0,1.324,4.032,33.848,33.848,0,0,0,1.894,3.807,13.9,13.9,0,0,1,.894,1.543Z" transform="translate(-82.072 -112.757)" fill="#263238"/>
          <path id="Path_81" data-name="Path 81" d="M127.03,90.419a14.567,14.567,0,0,0-1.265,12.455c.662,1.821,1.722,3.615,1.53,5.549s-1.7,3.847-1.172,5.754c.318,1.132,1.285,1.986,1.662,3.086.43,1.324,0,2.721-.232,4.079-.53,3.47.583,6.959.854,10.455s-.662,7.595-3.787,9.118a2.725,2.725,0,0,1-2.973-.113c-1.006-.894-.728-2.51-.45-3.834,2.741-13.243-5.727-26.168-3.794-39.569.311-2.145,1.51-5.787,3.052-7.284s5.827-1.324,7.284.265" transform="translate(-81.553 -86.777)" fill="#263238"/>
          <path id="Path_82" data-name="Path 82" d="M112.39,128.338a13.988,13.988,0,0,0,1-1.417,12.839,12.839,0,0,0,1.728-4.337,13.19,13.19,0,0,0,.205-3.218,34.085,34.085,0,0,1-.139-3.768,8.145,8.145,0,0,1,.377-2.026,11.3,11.3,0,0,1,.914-1.947c.742-1.251,1.675-2.417,2.536-3.662a10.051,10.051,0,0,0,1.8-3.973,12.389,12.389,0,0,0-.232-4.059,15.434,15.434,0,0,1-.291-3.761,12.654,12.654,0,0,1,.662-3.231,12.283,12.283,0,0,1,2.344-4.125,8.609,8.609,0,0,1,.9-.92,1.775,1.775,0,0,1,.344-.285,14.479,14.479,0,0,0-1.145,1.324,12.713,12.713,0,0,0-2.794,7.284,15.077,15.077,0,0,0,.324,3.695,12.58,12.58,0,0,1,.252,4.171,10.415,10.415,0,0,1-1.854,4.085c-.867,1.265-1.8,2.423-2.529,3.642a10.329,10.329,0,0,0-.887,1.88,7.675,7.675,0,0,0-.377,1.947,35.9,35.9,0,0,0,.106,3.728,13.243,13.243,0,0,1-.252,3.278,12.409,12.409,0,0,1-1.854,4.363,9.621,9.621,0,0,1-.795,1.02A2.119,2.119,0,0,1,112.39,128.338Z" transform="translate(-79.957 -86.279)" fill="#455a64"/>
          <path id="Path_83" data-name="Path 83" d="M102.91,129.308a2.431,2.431,0,0,1,.205-.444c.166-.311.377-.722.662-1.238.556-1.079,1.384-2.649,2.2-4.635a20.2,20.2,0,0,0,1.629-7.33,14.235,14.235,0,0,0-.166-2.172c-.113-.742-.285-1.49-.4-2.271a6.436,6.436,0,0,1,.053-2.437,4.357,4.357,0,0,1,1.324-2.125c1.245-1.132,2.748-1.874,3.529-3.2a10.839,10.839,0,0,0,1.172-4.244,16.593,16.593,0,0,1,.914-3.973,14.362,14.362,0,0,1,5.357-6.767,11.086,11.086,0,0,1,1.212-.708,1.986,1.986,0,0,1,.45-.2,16.329,16.329,0,0,0-1.583,1.02,14.468,14.468,0,0,0-3.556,3.635,14.07,14.07,0,0,0-1.616,3.119,16.851,16.851,0,0,0-.861,3.973,11.059,11.059,0,0,1-1.205,4.383c-.848,1.4-2.4,2.192-3.582,3.311a4.052,4.052,0,0,0-1.251,1.986,6.131,6.131,0,0,0-.046,2.3c.106.761.271,1.516.384,2.265a13.435,13.435,0,0,1,.159,2.225,20.1,20.1,0,0,1-1.715,7.449,44.414,44.414,0,0,1-2.3,4.635l-.7,1.04A2.285,2.285,0,0,1,102.91,129.308Z" transform="translate(-76.754 -86.262)" fill="#455a64"/>
        </g>
        <g id="freepik--Plant--inject-32" transform="translate(275.707 188.893)">
          <path id="Path_84" data-name="Path 84" d="M428.071,376.1a1.556,1.556,0,0,1,.119-.278c.093-.2.219-.463.371-.8a19.566,19.566,0,0,0,1.106-3.2,28.236,28.236,0,0,0-.093-12.362,66.82,66.82,0,0,0-2.3-8.31c-.967-2.946-2.1-6.072-3.019-9.455a36.669,36.669,0,0,1-1.49-10.872,42.623,42.623,0,0,1,2.529-11.508,55.355,55.355,0,0,0,2.927-11.329,17.288,17.288,0,0,0-2.079-10.462c-1.655-3.052-3.741-5.668-5.3-8.369a29.132,29.132,0,0,1-3.185-8.052,30.014,30.014,0,0,1-.205-12.461,22.96,22.96,0,0,1,1.324-4.4,1.7,1.7,0,0,1-.079.291l-.265.841a33.831,33.831,0,0,0-.808,3.311,30.459,30.459,0,0,0,.324,12.375,28.81,28.81,0,0,0,3.2,7.946c1.556,2.649,3.648,5.3,5.344,8.363a17.64,17.64,0,0,1,2.139,10.68,55.6,55.6,0,0,1-2.94,11.415,42.312,42.312,0,0,0-2.516,11.4,36.172,36.172,0,0,0,1.457,10.766c.907,3.364,2.019,6.489,2.98,9.449a65.047,65.047,0,0,1,2.251,8.356,28.383,28.383,0,0,1,0,12.455,18.432,18.432,0,0,1-1.185,3.2l-.411.788A1.364,1.364,0,0,1,428.071,376.1Z" transform="translate(-408.816 -264.23)" fill="#263238"/>
          <path id="Path_85" data-name="Path 85" d="M425.611,297.633s-3.165-10.137,2.516-16.07a.351.351,0,0,1,.6.172C429.035,283.41,429.412,288.508,425.611,297.633Z" transform="translate(-411.462 -270.048)" fill="#ddd"/>
          <path id="Path_86" data-name="Path 86" d="M427.9,286.72a9.7,9.7,0,0,1-.212,1.867c-.212,1.291-.457,2.8-.722,4.469s-.51,3.185-.715,4.469a11.147,11.147,0,0,1-.331,1.854,7.852,7.852,0,0,1,.04-1.88c.106-1.159.311-2.748.6-4.5s.6-3.311.841-4.456A8.214,8.214,0,0,1,427.9,286.72Z" transform="translate(-411.85 -271.828)" fill="#263238"/>
          <path id="Path_87" data-name="Path 87" d="M431.68,335.344s1.94-10.442,9.74-13.024a.351.351,0,0,1,.45.437C441.354,324.366,439.308,329.047,431.68,335.344Z" transform="translate(-413.809 -283.85)" fill="#ddd"/>
          <path id="Path_88" data-name="Path 88" d="M439.268,326.38a9.807,9.807,0,0,1-1.059,1.556l-2.735,3.609-2.715,3.622a10.6,10.6,0,0,1-1.159,1.477,7.844,7.844,0,0,1,.927-1.642c.662-.973,1.563-2.284,2.648-3.695s2.073-2.649,2.821-3.549a8.526,8.526,0,0,1,1.271-1.377Z" transform="translate(-413.782 -285.228)" fill="#263238"/>
          <path id="Path_89" data-name="Path 89" d="M428.459,373.691s-1.179-10.555,5.535-15.289a.344.344,0,0,1,.556.285C434.531,360.389,433.929,365.461,428.459,373.691Z" transform="translate(-412.694 -296.023)" fill="#ddd"/>
          <path id="Path_90" data-name="Path 90" d="M432.787,363.26a8.82,8.82,0,0,1-.563,1.794l-1.563,4.251c-.583,1.589-1.106,3.026-1.549,4.251a10.89,10.89,0,0,1-.662,1.755,7.736,7.736,0,0,1,.411-1.841c.324-1.112.828-2.649,1.443-4.3s1.218-3.145,1.675-4.211A9.223,9.223,0,0,1,432.787,363.26Z" transform="translate(-412.718 -297.688)" fill="#263238"/>
          <path id="Path_91" data-name="Path 91" d="M437.356,413.582s-.795-10.594,6.078-15.084a.351.351,0,0,1,.55.3C443.9,400.5,443.123,405.557,437.356,413.582Z" transform="translate(-415.717 -309.573)" fill="#ddd"/>
          <path id="Path_92" data-name="Path 92" d="M442.047,403.29a9.173,9.173,0,0,1-.629,1.775c-.49,1.205-1.073,2.649-1.715,4.191s-1.205,2.98-1.7,4.191a10.306,10.306,0,0,1-.748,1.728,7.946,7.946,0,0,1,.483-1.828c.364-1.1.92-2.609,1.6-4.244s1.324-3.105,1.821-4.152A8.848,8.848,0,0,1,442.047,403.29Z" transform="translate(-415.694 -311.213)" fill="#263238"/>
          <path id="Path_93" data-name="Path 93" d="M414.284,285.556s-9.389-4.926-9.594-13.13a.358.358,0,0,1,.55-.3C406.637,273.088,410.517,276.425,414.284,285.556Z" transform="translate(-404.69 -266.877)" fill="#ddd"/>
          <path id="Path_94" data-name="Path 94" d="M407.64,276.87a9.1,9.1,0,0,1,1.172,1.477c.768,1.053,1.662,2.3,2.649,3.668l2.649,3.655a10.372,10.372,0,0,1,1.073,1.543,7.787,7.787,0,0,1-1.291-1.371c-.748-.887-1.728-2.159-2.761-3.6s-1.94-2.768-2.562-3.741a9.047,9.047,0,0,1-.927-1.635Z" transform="translate(-405.687 -268.501)" fill="#263238"/>
          <path id="Path_95" data-name="Path 95" d="M429.155,318.723s-9.694-4.337-10.376-12.528a.351.351,0,0,1,.53-.331C420.759,306.745,424.831,309.831,429.155,318.723Z" transform="translate(-409.45 -278.28)" fill="#ddd"/>
          <path id="Path_96" data-name="Path 96" d="M422,310.47a8.985,8.985,0,0,1,1.258,1.4l2.874,3.5,2.88,3.489a10.594,10.594,0,0,1,1.165,1.477,8.066,8.066,0,0,1-1.377-1.291c-.795-.848-1.854-2.053-2.973-3.423s-2.1-2.649-2.788-3.582A8.51,8.51,0,0,1,422,310.47Z" transform="translate(-410.538 -279.853)" fill="#263238"/>
          <path id="Path_97" data-name="Path 97" d="M423.779,353.78s-6.621-8.277-3.529-15.891a.351.351,0,0,1,.622-.053C421.793,339.273,424,343.881,423.779,353.78Z" transform="translate(-409.669 -289.043)" fill="#ddd"/>
          <path id="Path_98" data-name="Path 98" d="M421.68,343.08a9.023,9.023,0,0,1,.49,1.821c.278,1.271.6,2.768.96,4.423s.7,3.145.973,4.417a10.371,10.371,0,0,1,.364,1.847,7.945,7.945,0,0,1-.662-1.775c-.324-1.119-.722-2.649-1.093-4.41s-.662-3.311-.848-4.45a8.61,8.61,0,0,1-.185-1.874Z" transform="translate(-410.43 -290.87)" fill="#263238"/>
          <path id="Path_99" data-name="Path 99" d="M430.813,398.437s-9.621-4.5-10.164-12.693a.351.351,0,0,1,.536-.331C422.609,386.32,426.628,389.478,430.813,398.437Z" transform="translate(-410.081 -305.155)" fill="#ddd"/>
          <path id="Path_100" data-name="Path 100" d="M423.77,390.06A9.858,9.858,0,0,1,425,391.484l2.814,3.542,2.821,3.542a10.387,10.387,0,0,1,1.139,1.5,7.8,7.8,0,0,1-1.324-1.324c-.788-.861-1.821-2.086-2.92-3.476s-2.053-2.682-2.728-3.629a8.1,8.1,0,0,1-1.033-1.576Z" transform="translate(-411.136 -306.743)" fill="#263238"/>
          <path id="Path_101" data-name="Path 101" d="M455.558,342.07v.894c0,.662-.066,1.5-.113,2.576-.119,2.265-.3,5.423-.5,9.2h0c-.662,3.84-2.649,8.1-5.3,12.236-1.927,3.046-3.973,5.814-5.694,8.389a59.162,59.162,0,0,0-4.224,7.085,29.726,29.726,0,0,0-1.986,5.178c-.166.629-.3,1.126-.371,1.463a3.075,3.075,0,0,1-.139.516,2.4,2.4,0,0,1,.066-.53c.046-.344.146-.848.3-1.49a27.063,27.063,0,0,1,1.887-5.264,56.869,56.869,0,0,1,4.218-7.131c1.735-2.6,3.741-5.37,5.661-8.4a36.766,36.766,0,0,0,5.3-12.091h0c.265-3.768.483-6.919.662-9.184.086-1.073.159-1.927.212-2.569a5.045,5.045,0,0,1,.066-.662.875.875,0,0,1-.04-.218Z" transform="translate(-415.684 -290.529)" fill="#263238"/>
          <path id="Path_102" data-name="Path 102" d="M455.172,370.179s4.072-9.8-1.046-16.229a.351.351,0,0,0-.616.119C453.053,355.712,452.212,360.75,455.172,370.179Z" transform="translate(-421.026 -294.497)" fill="#ddd"/>
          <path id="Path_103" data-name="Path 103" d="M455.127,359.19a8.6,8.6,0,0,1,.324,1.854c.146,1.152.3,2.748.43,4.516s.185,3.37.185,4.536a7.679,7.679,0,0,1-.113,1.88,9.935,9.935,0,0,1-.165-1.874c-.086-1.324-.192-2.827-.3-4.516s-.219-3.218-.311-4.516a9.574,9.574,0,0,1-.046-1.88Z" transform="translate(-421.722 -296.313)" fill="#263238"/>
          <g id="Group_7" data-name="Group 7" transform="translate(32.015 59.317)" opacity="0.3">
            <path id="Path_104" data-name="Path 104" d="M455.172,370.179s4.072-9.8-1.046-16.229a.351.351,0,0,0-.616.119C453.053,355.712,452.212,360.75,455.172,370.179Z" transform="translate(-453.041 -353.813)"/>
          </g>
          <path id="Path_105" data-name="Path 105" d="M435.594,405.952s3.264-10.1-2.364-16.09a.351.351,0,0,0-.6.166C432.309,391.7,431.879,396.794,435.594,405.952Z" transform="translate(-414.061 -306.638)" fill="#ddd"/>
          <path id="Path_106" data-name="Path 106" d="M434.52,395a8.123,8.123,0,0,1,.477,1.828c.238,1.132.523,2.715.795,4.463s.457,3.344.556,4.5a7.944,7.944,0,0,1,.033,1.887,11.313,11.313,0,0,1-.318-1.854c-.192-1.291-.417-2.8-.662-4.476s-.483-3.185-.662-4.476A9.584,9.584,0,0,1,434.52,395Z" transform="translate(-414.768 -308.412)" fill="#263238"/>
          <g id="Group_8" data-name="Group 8" transform="translate(18.365 83.11)" opacity="0.3">
            <path id="Path_107" data-name="Path 107" d="M435.594,405.952s3.264-10.1-2.364-16.09a.351.351,0,0,0-.6.166C432.309,391.7,431.879,396.794,435.594,405.952Z" transform="translate(-432.426 -389.748)"/>
          </g>
          <path id="Path_108" data-name="Path 108" d="M464.1,353s8.694-6.092,7.82-14.263a.351.351,0,0,0-.583-.225C470.072,339.653,466.682,343.441,464.1,353Z" transform="translate(-424.762 -289.298)" fill="#ddd"/>
          <g id="Group_9" data-name="Group 9" transform="translate(39.338 49.128)" opacity="0.3">
            <path id="Path_109" data-name="Path 109" d="M464.1,353s8.694-6.092,7.82-14.263a.351.351,0,0,0-.583-.225C470.072,339.653,466.682,343.441,464.1,353Z" transform="translate(-464.1 -338.425)"/>
          </g>
          <path id="Path_110" data-name="Path 110" d="M470.388,343.51a8.162,8.162,0,0,1-.722,1.741c-.5,1.046-1.218,2.476-2.059,4.039s-1.649,2.947-2.271,3.927a7.853,7.853,0,0,1-1.106,1.523,9.758,9.758,0,0,1,.861-1.669c.622-1.146,1.357-2.483,2.165-3.973l2.159-3.973A9.672,9.672,0,0,1,470.388,343.51Z" transform="translate(-424.806 -291.016)" fill="#263238"/>
          <path id="Path_111" data-name="Path 111" d="M442.51,394.074s10.488-1.635,13.3-9.356a.351.351,0,0,0-.417-.464C453.753,384.744,449.012,386.631,442.51,394.074Z" transform="translate(-417.468 -304.778)" fill="#ddd"/>
          <g id="Group_10" data-name="Group 10" transform="translate(25.042 79.465)" opacity="0.3">
            <path id="Path_112" data-name="Path 112" d="M442.51,394.074s10.488-1.635,13.3-9.356a.351.351,0,0,0-.417-.464C453.753,384.744,449.012,386.631,442.51,394.074Z" transform="translate(-442.51 -384.243)"/>
          </g>
          <path id="Path_113" data-name="Path 113" d="M453.082,388.05a8.5,8.5,0,0,1-1.417,1.238c-.907.728-2.185,1.7-3.622,2.728s-2.781,1.914-3.774,2.523a7.663,7.663,0,0,1-1.669.881,10.221,10.221,0,0,1,1.516-1.119l3.695-2.609,3.688-2.649a8.8,8.8,0,0,1,1.583-.993Z" transform="translate(-417.498 -306.064)" fill="#263238"/>
          <path id="Path_114" data-name="Path 114" d="M425.829,428.25l-3.059,20.593h19.07l-2.47-20.593Z" transform="translate(-410.798 -319.646)" fill="#455a64"/>
          <path id="Path_115" data-name="Path 115" d="M441.151,437.767a149,149,0,0,1-15.381,0,149.027,149.027,0,0,1,15.381,0Z" transform="translate(-411.812 -322.786)" fill="#263238"/>
          <path id="Path_116" data-name="Path 116" d="M441.451,440.259a159.015,159.015,0,0,1-15.891,0,159.039,159.039,0,0,1,15.891,0Z" transform="translate(-411.741 -323.636)" fill="#263238"/>
        </g>
        <g id="freepik--Boxes--inject-32" transform="translate(141.478 97.645)">
          <path id="Path_117" data-name="Path 117" d="M318.112,126.5h-.523a12.738,12.738,0,0,0-1.51,0,16.964,16.964,0,0,0-5.648,1.324,17.342,17.342,0,0,0-7.164,5.582,15.647,15.647,0,0,0-2.5,5.118,17.216,17.216,0,0,0,1.741,13,14.714,14.714,0,0,0,2.251,2.993,12.237,12.237,0,0,0,3.046,2.384,7.482,7.482,0,0,0,3.821.96,5.489,5.489,0,0,0,3.7-1.5,5.344,5.344,0,0,0,1.477-3.814,7.032,7.032,0,0,0-1.324-4.059,13.835,13.835,0,0,0-7.456-4.913,18.308,18.308,0,0,0-9.4-.132,19.706,19.706,0,0,0-4.529,1.8A16.322,16.322,0,0,0,290.2,148.3c-.271.311-.583.6-.828.94l-.748,1.006a18.9,18.9,0,0,0-1.218,2.212,17.944,17.944,0,0,0-1.437,4.88,18.5,18.5,0,0,0,1.324,9.932,15.341,15.341,0,0,0,6.39,7.284,10.594,10.594,0,0,0,4.529,1.371,8,8,0,0,0,4.469-1.073,6.986,6.986,0,0,0,3.019-3.311,6,6,0,0,0,.113-4.35,8.76,8.76,0,0,0-2.49-3.523,11.4,11.4,0,0,0-3.662-2.125,14.19,14.19,0,0,0-8.065-.139,15.713,15.713,0,0,0-6.621,3.688,15.123,15.123,0,0,0-3.794,5.873,17.017,17.017,0,0,0,.179,11.918,18.069,18.069,0,0,0,5.449,7.284,19.606,19.606,0,0,0,5.012,2.92c.622.232,1.106.4,1.437.5l.49.159s-.172-.033-.5-.126a14.243,14.243,0,0,1-1.443-.47,18.758,18.758,0,0,1-5.072-2.874,18.149,18.149,0,0,1-5.555-7.317,17.216,17.216,0,0,1-.218-12.044,15.183,15.183,0,0,1,3.834-5.959,16.017,16.017,0,0,1,6.721-3.774,14.494,14.494,0,0,1,8.237.132,11.6,11.6,0,0,1,3.768,2.178,8.992,8.992,0,0,1,2.582,3.648,6.343,6.343,0,0,1-.066,4.562,7.416,7.416,0,0,1-3.158,3.45,8.356,8.356,0,0,1-4.635,1.126,10.767,10.767,0,0,1-4.635-1.417,15.653,15.653,0,0,1-6.549-7.409,18.871,18.871,0,0,1-1.364-10.117,18.447,18.447,0,0,1,1.47-4.979,19.157,19.157,0,0,1,1.245-2.258l.768-1.026a9.894,9.894,0,0,1,.841-.967,16.772,16.772,0,0,1,3.973-3.112,19.949,19.949,0,0,1,4.635-1.827,18.632,18.632,0,0,1,9.581.139,14.192,14.192,0,0,1,7.628,5.052,7.283,7.283,0,0,1,1.391,4.238,5.655,5.655,0,0,1-1.569,4.032,5.794,5.794,0,0,1-3.907,1.569,7.7,7.7,0,0,1-3.973-1,12.309,12.309,0,0,1-3.112-2.443,15.228,15.228,0,0,1-2.284-3.052,17.46,17.46,0,0,1-1.748-13.243,15.825,15.825,0,0,1,2.563-5.171,17.427,17.427,0,0,1,7.284-5.6,16.553,16.553,0,0,1,5.688-1.245,11.569,11.569,0,0,1,1.523,0Z" transform="translate(-228.326 -126.422)" fill="#263238"/>
          <rect id="Rectangle_22" data-name="Rectangle 22" width="92.838" height="71.604" transform="translate(19.056 66.332)" fill="#ddd"/>
          <path id="Path_118" data-name="Path 118" d="M230.75,226.6l17.149,16h91.263l-15.573-16Z" transform="translate(-211.694 -160.268)" fill="#ddd"/>
          <path id="Path_119" data-name="Path 119" d="M230.75,226.516l92.865-.166h.073l.053.046,15.415,15.832.159.166.285.291h-.411l-91.263-.073h-.04l-17.136-16.1,17.216,15.891h-.073l91.263-.066-.119.291-.166-.166-15.408-15.832.119.053Z" transform="translate(-211.694 -160.184)" fill="#263238"/>
          <path id="Path_120" data-name="Path 120" d="M271.926,276.47a1.92,1.92,0,1,0,.139,0" transform="translate(-224.98 -177.117)" fill="#263238"/>
          <path id="Path_121" data-name="Path 121" d="M305.061,276.47a1.914,1.914,0,1,0,.146,0" transform="translate(-236.178 -177.117)" fill="#263238"/>
          <path id="Path_122" data-name="Path 122" d="M294.74,297.443a13.72,13.72,0,0,0-1.841-4.112,12.084,12.084,0,0,0-3.509-3.364,10.707,10.707,0,0,0-11.342-.311,12.23,12.23,0,0,0-3.688,3.165,13.573,13.573,0,0,0-2.059,4.013,1.371,1.371,0,0,1,.053-.318,7.394,7.394,0,0,1,.245-.881,10.593,10.593,0,0,1,1.569-2.96,12.044,12.044,0,0,1,3.728-3.311,10.892,10.892,0,0,1,11.667.318,12.011,12.011,0,0,1,3.536,3.5,10.594,10.594,0,0,1,1.41,3.046,7.776,7.776,0,0,1,.192.894A1.842,1.842,0,0,1,294.74,297.443Z" transform="translate(-225.732 -180.954)" fill="#263238"/>
          <path id="Path_123" data-name="Path 123" d="M231.07,227.79l16.421,20.818H323.7V243H248.008Z" transform="translate(-211.802 -160.67)" opacity="0.5"/>
          <path id="Path_124" data-name="Path 124" d="M343.222,306.12c-.093,0-.172-12.455-.172-27.81s.079-27.81.172-27.81.179,12.448.179,27.81S343.321,306.12,343.222,306.12Z" transform="translate(-249.635 -168.343)" fill="#263238"/>
          <rect id="Rectangle_23" data-name="Rectangle 23" width="8.184" height="9.25" transform="translate(99.983 121.541)" fill="#f5f5f5"/>
          <path id="Path_125" data-name="Path 125" d="M221.026,226.6l-19.056,16h19.056Z" transform="translate(-201.97 -160.268)" fill="#ddd"/>
          <g id="Group_11" data-name="Group 11" transform="translate(0 66.332)" opacity="0.4">
            <path id="Path_126" data-name="Path 126" d="M221.026,226.6l-19.056,16h19.056Z" transform="translate(-201.97 -226.6)"/>
          </g>
          <rect id="Rectangle_24" data-name="Rectangle 24" width="106.743" height="82.33" transform="translate(7.893 137.935)" fill="#ddd"/>
          <rect id="Rectangle_25" data-name="Rectangle 25" width="106.743" height="82.33" transform="translate(7.893 137.935)" opacity="0.3"/>
          <path id="Path_127" data-name="Path 127" d="M334.622,416.376c-.093,0-.172-18.348-.172-40.98s.079-40.986.172-40.986.172,18.348.172,40.986S334.715,416.376,334.622,416.376Z" transform="translate(-246.73 -196.693)" fill="#263238"/>
          <rect id="Rectangle_26" data-name="Rectangle 26" width="8.184" height="9.25" transform="translate(97.401 201.527)" fill="#f5f5f5"/>
          <rect id="Rectangle_27" data-name="Rectangle 27" width="12.124" height="17.567" transform="translate(40.457 138.154)" fill="#263238"/>
          <rect id="Rectangle_28" data-name="Rectangle 28" width="12.124" height="17.567" transform="translate(40.457 202.454)" fill="#263238"/>
          <path id="Path_128" data-name="Path 128" d="M319.706,334.689h-1.079l-3.079.033-11.342.053-37.4.086-37.417-.046-11.336-.053-3.079-.033h0l3.079-.033,11.336-.053,37.417-.053,37.4.053,11.342.053,3.079.033h.8Z" transform="translate(-205.997 -196.754)" fill="#263238"/>
        </g>
        <g id="freepik--speech-bubble--inject-32" transform="translate(30.918 54.283)">
          <path id="Path_129" data-name="Path 129" d="M76.33,99.693,64.7,96.833h.086a19.3,19.3,0,0,1-10.031,3.013,21.1,21.1,0,0,1-6.217-.907A19.493,19.493,0,0,1,35.151,82.756a19.2,19.2,0,0,1,4.993-15.514,19.917,19.917,0,0,1,3.37-2.953c.622-.391,1.245-.795,1.894-1.132l.987-.477.49-.238.516-.185A19.432,19.432,0,0,1,72.814,74.022,20.169,20.169,0,0,1,73.886,80.3,19.262,19.262,0,0,1,71.1,90.37v-.106c3.231,5.833,4.86,8.78,5.224,9.429-.377-.662-2.066-3.556-5.41-9.33v-.106a19.109,19.109,0,0,0,2.649-9.932,19.719,19.719,0,0,0-1.086-6.171A19.067,19.067,0,0,0,47.54,62.633l-.5.179-.483.238-.967.463c-.662.338-1.245.728-1.861,1.112A19.672,19.672,0,0,0,40.415,67.5a18.864,18.864,0,0,0-4.906,15.229A19.156,19.156,0,0,0,42.68,95.462a18.851,18.851,0,0,0,5.959,3.178,20.632,20.632,0,0,0,6.112.92,19.123,19.123,0,0,0,9.932-2.907H64.8Z" transform="translate(-34.997 -60.935)" fill="#263238"/>
          <path id="Path_130" data-name="Path 130" d="M62,76.628l.589,9.733a1.576,1.576,0,0,0,1.477,1.477h0a1.583,1.583,0,0,0,1.662-1.4l1.079-9.753a1.238,1.238,0,0,0-1.251-1.371H63.19A1.232,1.232,0,0,0,62,76.628Z" transform="translate(-44.118 -65.792)" fill="#ddd"/>
          <path id="Path_131" data-name="Path 131" d="M66.643,100.848a2.37,2.37,0,1,1-.13-1.811,2.37,2.37,0,0,1,.13,1.811Z" transform="translate(-44.128 -73.366)" fill="#ddd"/>
        </g>
      </g>
      <text id="Nothing_Here_Add_a_new_Todo" data-name="Nothing Here!
Add a new Todo" transform="translate(188 591)" fill="#707070" font-size="24" font-family="Roboto-Bold, Roboto" font-weight="700"><tspan x="-74.859" y="0">Nothing Here!</tspan><tspan x="-85.207" y="32">Add a new Todo</tspan></text>
      <path id="Path_132" data-name="Path 132" d="M191.371,38.647c62.783,5.091,52.6,50.905,0,59.389s3.394-47.511,39.027-18.665-162.9,67.873-25.452,66.176" transform="translate(92 579)" fill="none" stroke="#707070" stroke-width="2"/>
    </g>
    <path id="Polygon_1" data-name="Polygon 1" d="M12.5,0,25,23H0Z" transform="translate(317.216 712.203) rotate(91)" fill="#707070"/>
  </g>
</svg>
